<svg width="49" height="46" viewBox="0 0 49 46" fill="none" xmlns="http://www.w3.org/2000/svg">
<path d="M34.8919 9.89362H30.8915C29.7286 8.46981 28.2367 7.34537 26.518 6.62251C25.1797 6.06029 23.7024 5.74632 22.1519 5.74632C19.2558 5.74632 16.623 6.83426 14.6264 8.62315C14.6044 8.64505 14.5825 8.65966 14.5606 8.68156C14.5313 8.70347 14.5021 8.73267 14.4728 8.76188C13.3465 9.7987 12.4397 11.0619 11.8107 12.4638C11.467 13.2524 11.1964 14.092 11.0355 14.9536C10.9112 15.6181 10.8527 16.2898 10.8527 16.9835C10.86 17.0127 10.8673 17.0565 10.8673 17.093L10.8819 17.5238C10.9039 18.1152 10.9697 18.6993 11.0867 19.2543H11.094L11.1159 19.2616C11.2915 20.1451 11.5767 20.9847 11.9497 21.7733L11.9277 21.766C13.0174 24.1098 14.8824 26.0082 17.2007 27.14C18.4879 27.7679 19.9213 28.1695 21.4206 28.2571L22.6492 31.6085L22.2104 31.6231C21.7424 31.6231 21.2962 31.6012 20.8647 31.5647C13.6976 30.9368 7.94923 25.1028 7.56893 17.7939C7.5543 17.7647 7.54699 17.7209 7.53967 17.6698L7.51773 17.0857C7.50311 13.8876 8.52699 10.9304 10.2676 8.50632C10.4139 8.32378 10.5601 8.12664 10.7064 7.9295C13.2588 4.76061 17.091 2.65775 21.4498 2.45331C21.4718 2.446 21.4937 2.446 21.5156 2.4387C21.6034 2.4387 21.6912 2.4314 21.7789 2.4241H22.108C27.5712 2.39489 32.3834 5.40315 34.8919 9.89362Z" fill="#5B656F"/>
<path d="M24.6016 29.8853V27.3079C24.6016 27.0742 24.7917 26.8844 25.0257 26.8844H33.0193C33.2534 26.8844 33.4435 27.0742 33.4435 27.3079V29.8853C33.4435 30.119 33.2534 30.3088 33.0193 30.3088H25.0331C24.799 30.3161 24.6016 30.1263 24.6016 29.8853Z" fill="#5B656F"/>
<path d="M37.225 11.9745H20.9161C20.0312 11.9745 19.3145 12.6974 19.3145 13.5736V24.4384C19.3145 24.7523 19.5631 25.0006 19.8776 25.0006H38.3513C38.578 25.0006 38.7682 24.818 38.7682 24.5844V13.5079C38.7536 12.6609 38.0734 11.9745 37.225 11.9745ZM35.3309 21.1672C35.3309 21.3936 35.148 21.5761 34.914 21.5761H23.1394C22.9127 21.5761 22.7298 21.4009 22.7298 21.1672V15.8152C22.7298 15.5888 22.9053 15.399 23.1394 15.399H34.9067C35.1334 15.399 35.3236 15.5815 35.3236 15.8152L35.3309 21.1672Z" fill="#5B656F"/>
<path d="M2.17969 33.0835H4.65163L7.06506 39.027L9.45655 33.0835H11.9212V41.6702H9.82222V36.5225L7.89879 41.6702H6.20939L4.27133 36.5079V41.6702H2.17969V33.0835Z" fill="#5B656F"/>
<path d="M16.5287 41.7505C14.6858 41.7505 13.2304 40.8305 13.1719 39.1H15.4025C15.4683 39.7644 15.8852 40.0784 16.4702 40.0784C17.0846 40.0784 17.4722 39.7717 17.4722 39.2679C17.4722 37.6762 13.1719 38.5378 13.2011 35.493C13.2011 33.8647 14.5395 32.9594 16.3386 32.9594C18.2108 32.9594 19.4761 33.894 19.5565 35.5295H17.2893C17.2528 34.9819 16.8578 34.646 16.302 34.6387C15.7974 34.6241 15.4171 34.8797 15.4171 35.42C15.4171 36.9095 19.6662 36.2378 19.6662 39.1146C19.6662 40.553 18.5399 41.7505 16.5287 41.7505Z" fill="#5B656F"/>
<path d="M23.9964 41.7651C21.9925 41.7651 20.5371 40.4216 20.5371 38.2603C20.5371 36.099 21.9559 34.7556 23.9964 34.7556C25.9929 34.7556 27.4044 36.0771 27.4044 38.1581C27.4044 38.3552 27.3898 38.5597 27.3679 38.7714H22.6288C22.7019 39.6622 23.2577 40.0784 23.9232 40.0784C24.5083 40.0784 24.8447 39.7863 25.0129 39.414H27.2435C26.9071 40.7356 25.6931 41.7651 23.9964 41.7651ZM22.6361 37.5959H25.2543C25.2543 36.8511 24.6692 36.4203 23.9671 36.4203C23.287 36.4203 22.7531 36.8365 22.6361 37.5959Z" fill="#5B656F"/>
<path d="M36.5228 35.7924H34.2118C33.89 35.2155 33.3049 34.9089 32.5224 34.9089C31.1767 34.9089 30.2771 35.8654 30.2771 37.3549C30.2771 38.9467 31.184 39.874 32.6906 39.874C33.7291 39.874 34.4531 39.3263 34.7749 38.3552H32.1201V36.8146H36.6764V38.7641C36.2376 40.2463 34.8042 41.7213 32.537 41.7213C29.9627 41.7213 28.1562 39.9251 28.1562 37.3549C28.1562 34.7848 29.9554 32.9813 32.5297 32.9813C34.5701 32.9813 36.0694 34.0327 36.5228 35.7924Z" fill="#5B656F"/>
<path d="M40.9408 41.7505C39.0979 41.7505 37.6425 40.8305 37.584 39.1H39.8146C39.8804 39.7644 40.2973 40.0784 40.8823 40.0784C41.4967 40.0784 41.8843 39.7717 41.8843 39.2679C41.8843 37.6762 37.584 38.5378 37.6132 35.493C37.6132 33.8647 38.9516 32.9594 40.7507 32.9594C42.6229 32.9594 43.8882 33.894 43.9686 35.5295H41.7014C41.6649 34.9819 41.27 34.646 40.7141 34.6387C40.2095 34.6241 39.8292 34.8797 39.8292 35.42C39.8292 36.9095 44.0783 36.2378 44.0783 39.1146C44.0783 40.553 42.9447 41.7505 40.9408 41.7505Z" fill="#5B656F"/>
<path d="M44.4434 32.9594H45.5989V33.2149H45.182V34.5365H44.8675V33.2149H44.4507V32.9594H44.4434Z" fill="#5B656F"/>
<path d="M45.832 32.9594H46.1904L46.695 34.1276L47.1996 32.9594H47.558V34.5365H47.2435V33.5143L46.8193 34.5365H46.578L46.1538 33.5143V34.5365H45.8393V32.9594H45.832Z" fill="#5B656F"/>
</svg>
